<?xml version="1.0" encoding="UTF-8" standalone="no"?>
<!DOCTYPE svg PUBLIC "-//W3C//DTD SVG 1.1//EN" "http://www.w3.org/Graphics/SVG/1.1/DTD/svg11.dtd">
<svg width="100%" height="100%" viewBox="0 0 98 11" version="1.1" xmlns="http://www.w3.org/2000/svg" xmlns:xlink="http://www.w3.org/1999/xlink" xml:space="preserve" xmlns:serif="http://www.serif.com/" style="fill-rule:evenodd;clip-rule:evenodd;stroke-linejoin:round;stroke-miterlimit:2;">
    <g transform="matrix(1,0,0,1,-310,-35)">
        <path d="M310.5,44L310.5,42.5L312,42.5L312,44L310.5,44ZM312,45.5L312,44L316.5,44L316.5,42.5L312,42.5L312,41L316.5,41L316.5,39.5L318,39.5L318,45.5L312,45.5ZM312,39.5L312,38L316.5,38L316.5,39.5L312,39.5Z" style="fill-rule:nonzero;"/>
        <path d="M325.5,45.5L325.5,39.5L327,39.5L327,45.5L325.5,45.5ZM319.5,45.5L319.5,38L325.5,38L325.5,39.5L321,39.5L321,45.5L319.5,45.5Z" style="fill-rule:nonzero;"/>
        <path d="M330,45.5L330,44L334.5,44L334.5,45.5L330,45.5ZM328.5,44L328.5,39.5L330,39.5L330,44L328.5,44ZM334.5,44L334.5,39.5L336,39.5L336,44L334.5,44ZM330,39.5L330,38L334.5,38L334.5,39.5L330,39.5Z" style="fill-rule:nonzero;"/>
        <path d="M340.5,45.5L340.5,44L342,44L342,45.5L340.5,45.5ZM339,44L339,39L337.5,39L337.5,37.5L339,37.5L339,35L340.5,35L340.5,37.5L342,37.5L342,39L340.5,39L340.5,44L339,44Z" style="fill-rule:nonzero;"/>
        <path d="M349.5,45.5L349.5,39.5L351,39.5L351,45.5L349.5,45.5ZM346.5,39.5L346.5,38L349.5,38L349.5,39.5L346.5,39.5ZM343.5,45.5L343.5,35L345,35L345,39.5L346.5,39.5L346.5,41L345,41L345,45.5L343.5,45.5Z" style="fill-rule:nonzero;"/>
        <path d="M354,45.5L354,44L360,44L360,45.5L354,45.5ZM352.5,44L352.5,39.5L354,39.5L354,41L358.5,41L358.5,39.5L360,39.5L360,42.5L354,42.5L354,44L352.5,44ZM354,39.5L354,38L358.5,38L358.5,39.5L354,39.5Z" style="fill-rule:nonzero;"/>
        <path d="M367.5,41L367.5,39.5L369,39.5L369,41L367.5,41ZM361.5,45.5L361.5,38L363,38L363,39.5L364.5,39.5L364.5,41L363,41L363,45.5L361.5,45.5ZM364.5,39.5L364.5,38L367.5,38L367.5,39.5L364.5,39.5Z" style="fill-rule:nonzero;"/>
        <path d="M373.5,42.5L373.5,39.5L375,39.5L375,42.5L373.5,42.5ZM376.5,45.5L376.5,39.5L378,39.5L378,45.5L376.5,45.5ZM370.5,45.5L370.5,38L373.5,38L373.5,39.5L372,39.5L372,45.5L370.5,45.5ZM375,39.5L375,38L376.5,38L376.5,39.5L375,39.5Z" style="fill-rule:nonzero;"/>
        <path d="M379.5,45.5L379.5,38L381,38L381,45.5L379.5,45.5ZM379.5,36.5L379.5,35L381,35L381,36.5L379.5,36.5Z" style="fill-rule:nonzero;"/>
        <path d="M388.5,45.5L388.5,39.5L390,39.5L390,45.5L388.5,45.5ZM382.5,45.5L382.5,38L388.5,38L388.5,39.5L384,39.5L384,45.5L382.5,45.5Z" style="fill-rule:nonzero;"/>
        <path d="M393,45.5L393,44L397.5,44L397.5,45.5L393,45.5ZM391.5,44L391.5,39.5L393,39.5L393,44L391.5,44ZM397.5,44L397.5,39.5L399,39.5L399,44L397.5,44ZM393,39.5L393,38L397.5,38L397.5,39.5L393,39.5Z" style="fill-rule:nonzero;"/>
        <path d="M406.5,41L406.5,39.5L408,39.5L408,41L406.5,41ZM400.5,45.5L400.5,38L402,38L402,39.5L403.5,39.5L403.5,41L402,41L402,45.5L400.5,45.5ZM403.5,39.5L403.5,38L406.5,38L406.5,39.5L403.5,39.5Z" style="fill-rule:nonzero;"/>
    </g>
</svg>
