<?xml version="1.0" encoding="UTF-8" standalone="no"?>
<!DOCTYPE svg PUBLIC "-//W3C//DTD SVG 1.1//EN" "http://www.w3.org/Graphics/SVG/1.1/DTD/svg11.dtd">
<svg width="100%" height="100%" viewBox="0 0 1200 631" version="1.1" xmlns="http://www.w3.org/2000/svg" xmlns:xlink="http://www.w3.org/1999/xlink" xml:space="preserve" xmlns:serif="http://www.serif.com/" style="fill-rule:evenodd;clip-rule:evenodd;stroke-linejoin:round;stroke-miterlimit:2;">
    <g>
        <g transform="matrix(5.779487,0,0,5.779487,-1542.8,-830.184615)">
            <path d="M279,196.5L279,190.5L282,190.5L282,196.5L279,196.5ZM285,202.5L285,190.5L288,190.5L288,202.5L285,202.5ZM273,202.5L273,187.5L279,187.5L279,190.5L276,190.5L276,202.5L273,202.5ZM282,190.5L282,187.5L285,187.5L285,190.5L282,190.5Z" style="fill:rgb(25,21,15);fill-rule:nonzero;"/>
        </g>
        <g transform="matrix(5.779487,0,0,5.779487,-1542.8,-830.184615)">
            <path d="M291,202.5L291,187.5L294,187.5L294,202.5L291,202.5ZM291,184.5L291,181.5L294,181.5L294,184.5L291,184.5Z" style="fill:rgb(25,21,15);fill-rule:nonzero;"/>
        </g>
        <g transform="matrix(5.779487,0,0,5.779487,-1542.8,-830.184615)">
            <path d="M309,202.5L309,190.5L312,190.5L312,202.5L309,202.5ZM297,202.5L297,187.5L309,187.5L309,190.5L300,190.5L300,202.5L297,202.5Z" style="fill:rgb(25,21,15);fill-rule:nonzero;"/>
        </g>
        <g transform="matrix(5.779487,0,0,5.779487,-1542.8,-830.184615)">
            <path d="M318,202.5L318,199.5L327,199.5L327,202.5L318,202.5ZM315,199.5L315,190.5L318,190.5L318,199.5L315,199.5ZM327,199.5L327,190.5L330,190.5L330,199.5L327,199.5ZM318,190.5L318,187.5L327,187.5L327,190.5L318,190.5Z" style="fill:rgb(25,21,15);fill-rule:nonzero;"/>
        </g>
        <g transform="matrix(5.779487,0,0,5.779487,-1542.8,-830.184615)">
            <path d="M345,193.5L345,190.5L348,190.5L348,193.5L345,193.5ZM333,202.5L333,187.5L336,187.5L336,190.5L339,190.5L339,193.5L336,193.5L336,202.5L333,202.5ZM339,190.5L339,187.5L345,187.5L345,190.5L339,190.5Z" style="fill:rgb(25,21,15);fill-rule:nonzero;"/>
        </g>
        <g transform="matrix(5.779487,0,0,5.779487,-1542.8,-830.184615)">
            <path d="M351,199.5L351,187.5L354,187.5L354,199.5L351,199.5ZM354,202.5L354,199.5L363,199.5L363,187.5L366,187.5L366,202.5L354,202.5Z" style="fill:rgb(25,21,15);fill-rule:nonzero;"/>
        </g>
        <g transform="matrix(5.779487,0,0,5.779487,-1542.8,-830.184615)">
            <path d="M381,196.5L381,190.5L384,190.5L384,196.5L381,196.5ZM369,205.5L369,187.5L372,187.5L372,190.5L375,190.5L375,193.5L372,193.5L372,196.5L381,196.5L381,199.5L372,199.5L372,205.5L369,205.5ZM375,190.5L375,187.5L381,187.5L381,190.5L375,190.5Z" style="fill:rgb(25,21,15);fill-rule:nonzero;"/>
        </g>
        <g transform="matrix(5.779487,0,0,5.779487,-1542.8,-830.184615)">
            <path d="M387,199.5L387,190.5L390,190.5L390,199.5L387,199.5ZM390,190.5L390,187.5L396,187.5L396,190.5L390,190.5ZM390,202.5L390,199.5L399,199.5L399,193.5L396,193.5L396,190.5L399,190.5L399,181.5L402,181.5L402,202.5L390,202.5Z" style="fill:rgb(25,21,15);fill-rule:nonzero;"/>
        </g>
        <g transform="matrix(5.779487,0,0,5.779487,-1542.8,-830.184615)">
            <path d="M405,199.5L405,196.5L408,196.5L408,199.5L405,199.5ZM408,202.5L408,199.5L417,199.5L417,196.5L408,196.5L408,193.5L417,193.5L417,190.5L420,190.5L420,202.5L408,202.5ZM408,190.5L408,187.5L417,187.5L417,190.5L408,190.5Z" style="fill:rgb(25,21,15);fill-rule:nonzero;"/>
        </g>
        <g transform="matrix(5.779487,0,0,5.779487,-1542.8,-830.184615)">
            <path d="M429,202.5L429,199.5L432,199.5L432,202.5L429,202.5ZM426,199.5L426,189.5L423,189.5L423,186.5L426,186.5L426,181.5L429,181.5L429,186.5L432,186.5L432,189.5L429,189.5L429,199.5L426,199.5Z" style="fill:rgb(25,21,15);fill-rule:nonzero;"/>
        </g>
        <g transform="matrix(5.779487,0,0,5.779487,-1542.8,-830.184615)">
            <path d="M438,202.5L438,199.5L450,199.5L450,202.5L438,202.5ZM435,199.5L435,190.5L438,190.5L438,193.5L447,193.5L447,190.5L450,190.5L450,196.5L438,196.5L438,199.5L435,199.5ZM438,190.5L438,187.5L447,187.5L447,190.5L438,190.5Z" style="fill:rgb(25,21,15);fill-rule:nonzero;"/>
        </g>
        <g transform="matrix(5.779487,0,0,5.779487,-1542.8,-830.184615)">
            <path d="M453,202.5L453,199.5L465,199.5L465,202.5L453,202.5ZM465,199.5L465,196.5L468,196.5L468,199.5L465,199.5ZM456,196.5L456,193.5L465,193.5L465,196.5L456,196.5ZM453,193.5L453,190.5L456,190.5L456,193.5L453,193.5ZM456,190.5L456,187.5L468,187.5L468,190.5L456,190.5Z" style="fill:rgb(25,21,15);fill-rule:nonzero;"/>
        </g>
    </g>
</svg>
